<?xml version="1.0" encoding="UTF-8" standalone="no"?><!DOCTYPE svg PUBLIC "-//W3C//DTD SVG 1.1//EN" "http://www.w3.org/Graphics/SVG/1.1/DTD/svg11.dtd"><svg width="100%" height="100%" viewBox="0 0 200 16" version="1.1" xmlns="http://www.w3.org/2000/svg" xmlns:xlink="http://www.w3.org/1999/xlink" xml:space="preserve" xmlns:serif="http://www.serif.com/" style="fill-rule:evenodd;clip-rule:evenodd;stroke-linejoin:round;stroke-miterlimit:2;"><g id="KU-Logo" serif:id="KU Logo"><path d="M0,0.773l2.508,-0l0,4.729l4.458,-4.729l3.132,-0l-4.458,4.506l4.89,6.902l-3.148,-0l-3.435,-5.129l-1.439,1.454l0,3.675l-2.508,-0" style="fill:#fff;fill-rule:nonzero;"/><path d="M13.623,2.642l-2.269,0l0,-1.869l2.269,0l0,1.869Zm-2.268,1.278l2.269,-0l-0,8.26l-2.269,0l-0,-8.26Z" style="fill:#fff;fill-rule:nonzero;"/><path d="M15.41,3.92l2.157,-0l0,1.15l0.048,0c0.576,-0.926 1.567,-1.374 2.525,-1.374c2.412,0 3.02,1.359 3.02,3.404l-0,5.081l-2.27,-0l0,-4.665c0,-1.359 -0.398,-2.029 -1.454,-2.029c-1.23,-0 -1.756,0.687 -1.756,2.364l-0,4.33l-2.27,-0" style="fill:#fff;fill-rule:nonzero;"/><path d="M32.821,11.654c-0,1.358 -0.479,3.659 -4.282,3.659c-1.63,-0 -3.532,-0.767 -3.643,-2.653l2.253,0c0.208,0.848 0.894,1.136 1.693,1.136c1.263,-0 1.838,-0.864 1.822,-2.046l-0,-1.087l-0.032,-0c-0.496,0.862 -1.486,1.279 -2.476,1.279c-2.477,-0 -3.532,-1.887 -3.532,-4.155c-0,-2.141 1.23,-4.091 3.548,-4.091c1.086,0 1.917,0.368 2.46,1.326l0.032,0l-0,-1.102l2.157,-0m-2.157,4.027c-0,-1.342 -0.464,-2.541 -1.933,-2.541c-1.279,0 -1.838,1.118 -1.838,2.35c-0,1.181 0.448,2.476 1.838,2.476c1.294,-0 1.933,-1.103 1.933,-2.285" style="fill:#fff;fill-rule:nonzero;"/><path d="M36.395,9.496c0.015,0.992 0.846,1.39 1.741,1.39c0.655,0 1.487,-0.255 1.487,-1.054c-0,-0.686 -0.944,-0.926 -2.573,-1.279c-1.311,-0.286 -2.621,-0.75 -2.621,-2.204c0,-2.109 1.821,-2.653 3.595,-2.653c1.806,0 3.467,0.609 3.643,2.637l-2.157,-0c-0.064,-0.879 -0.735,-1.119 -1.55,-1.119c-0.511,0 -1.262,0.096 -1.262,0.768c0,0.814 1.278,0.927 2.573,1.23c1.326,0.303 2.62,0.783 2.62,2.317c-0,2.172 -1.886,2.876 -3.771,2.876c-1.918,-0 -3.787,-0.72 -3.882,-2.909" style="fill:#fff;fill-rule:nonzero;"/><path d="M46.088,3.92l1.661,-0l0,1.519l-1.661,-0l-0,4.089c-0,0.767 0.191,0.96 0.959,0.96c0.238,-0 0.463,-0.017 0.702,-0.065l0,1.774c-0.382,0.063 -0.878,0.08 -1.326,0.08c-1.39,-0 -2.604,-0.32 -2.604,-1.966l-0,-4.872l-1.374,-0l-0,-1.519l1.374,-0l-0,-2.476l2.269,-0" style="fill:#fff;fill-rule:nonzero;"/><path d="M52.844,3.696c2.604,0 4.282,1.726 4.282,4.363c0,2.621 -1.678,4.347 -4.282,4.347c-2.589,-0 -4.266,-1.726 -4.266,-4.347c-0,-2.637 1.677,-4.363 4.266,-4.363m-0,6.999c1.549,-0 2.012,-1.325 2.012,-2.636c-0,-1.326 -0.463,-2.653 -2.012,-2.653c-1.534,0 -1.998,1.327 -1.998,2.653c0,1.311 0.464,2.636 1.998,2.636" style="fill:#fff;fill-rule:nonzero;"/><path d="M58.191,3.92l2.158,-0l-0,1.15l0.047,0c0.575,-0.926 1.566,-1.374 2.525,-1.374c2.412,0 3.02,1.359 3.02,3.404l0,5.081l-2.27,-0l0,-4.665c0,-1.359 -0.399,-2.029 -1.454,-2.029c-1.23,-0 -1.757,0.687 -1.757,2.364l0,4.33l-2.269,-0" style="fill:#fff;fill-rule:nonzero;"/><path d="M79.733,7.657c0,3.084 -1.82,4.586 -4.873,4.586c-3.067,-0 -4.858,-1.486 -4.858,-4.586l0,-7.093l2.509,-0l-0,7.093c-0,1.246 0.321,2.476 2.349,2.476c1.79,-0 2.365,-0.782 2.365,-2.476l0,-7.093l2.508,-0" style="fill:#fff;fill-rule:nonzero;"/><path d="M81.644,3.711l2.157,-0l-0,1.15l0.048,0c0.575,-0.927 1.566,-1.374 2.525,-1.374c2.412,0 3.02,1.359 3.02,3.404l0,5.081l-2.27,-0l-0,-4.666c-0,-1.358 -0.399,-2.029 -1.454,-2.029c-1.23,0 -1.757,0.688 -1.757,2.364l0,4.331l-2.269,-0" style="fill:#fff;fill-rule:nonzero;"/><path d="M93.446,2.433l-2.268,-0l-0,-1.87l2.268,0l0,1.87Zm-2.268,1.277l2.269,0l-0,8.261l-2.269,0l0,-8.261Z" style="fill:#fff;fill-rule:nonzero;"/><path d="M99.804,11.971l-2.525,0l-2.829,-8.26l2.382,-0l1.741,5.641l0.032,-0l1.741,-5.641l2.253,-0" style="fill:#fff;fill-rule:nonzero;"/><path d="M105.407,8.392c0.064,1.439 0.768,2.093 2.029,2.093c0.91,0 1.646,-0.559 1.79,-1.071l1.997,0c-0.64,1.95 -1.997,2.781 -3.867,2.781c-2.604,0 -4.218,-1.79 -4.218,-4.347c-0,-2.476 1.71,-4.362 4.218,-4.362c2.812,0 4.171,2.365 4.011,4.906m-2.269,-1.438c-0.208,-1.15 -0.703,-1.758 -1.806,-1.758c-1.438,0 -1.853,1.118 -1.885,1.758l3.691,-0Z" style="fill:#fff;fill-rule:nonzero;"/><path d="M112.704,3.711l2.157,-0l-0,1.534l0.031,0c0.417,-1.039 1.534,-1.758 2.637,-1.758c0.16,0 0.352,0.032 0.495,0.08l0,2.11c-0.207,-0.048 -0.543,-0.081 -0.814,-0.081c-1.663,0 -2.237,1.199 -2.237,2.653l0,3.723l-2.269,-0" style="fill:#fff;fill-rule:nonzero;"/><path d="M120.674,9.287c0.015,0.991 0.846,1.39 1.741,1.39c0.656,0 1.486,-0.255 1.486,-1.055c-0,-0.687 -0.943,-0.925 -2.572,-1.278c-1.311,-0.286 -2.621,-0.75 -2.621,-2.204c0,-2.109 1.822,-2.653 3.595,-2.653c1.806,0 3.467,0.608 3.643,2.636l-2.158,0c-0.063,-0.879 -0.735,-1.118 -1.549,-1.118c-0.511,-0 -1.262,0.096 -1.262,0.767c-0,0.814 1.278,0.927 2.571,1.23c1.328,0.304 2.622,0.784 2.622,2.317c-0,2.173 -1.886,2.876 -3.771,2.876c-1.918,0 -3.787,-0.719 -3.883,-2.908" style="fill:#fff;fill-rule:nonzero;"/><path d="M129.824,2.433l-2.269,-0l-0,-1.87l2.269,0l-0,1.87Zm-2.269,1.277l2.269,0l-0,8.261l-2.269,0l-0,-8.261Z" style="fill:#fff;fill-rule:nonzero;"/><path d="M134.487,3.711l1.661,-0l-0,1.518l-1.661,0l0,4.09c0,0.767 0.191,0.959 0.959,0.959c0.239,0 0.463,-0.016 0.702,-0.064l-0,1.773c-0.383,0.064 -0.878,0.08 -1.325,0.08c-1.39,0 -2.605,-0.32 -2.605,-1.965l-0,-4.873l-1.374,0l-0,-1.518l1.374,-0l-0,-2.477l2.269,0" style="fill:#fff;fill-rule:nonzero;"/><path d="M141.925,13.009c-0.496,1.327 -1.278,1.871 -2.844,1.871c-0.464,-0 -0.928,-0.033 -1.39,-0.08l-0,-1.87c0.431,0.032 0.879,0.097 1.325,0.079c0.784,-0.079 1.039,-0.894 0.784,-1.549l-2.908,-7.749l2.428,0l1.87,5.656l0.032,-0l1.805,-5.656l2.349,0" style="fill:#fff;fill-rule:nonzero;"/><path d="M149.438,0.564l1.086,-0l0,10.481l6.391,0l0,0.926l-7.477,0" style="fill:#fff;fill-rule:nonzero;"/><path d="M165.204,7.848c0,2.366 -1.374,4.363 -3.898,4.363c-2.525,-0 -3.9,-1.997 -3.9,-4.363c0,-2.365 1.375,-4.362 3.9,-4.362c2.524,-0 3.898,1.997 3.898,4.362m-6.79,0c-0,1.758 0.959,3.516 2.892,3.516c1.933,-0 2.892,-1.758 2.892,-3.516c-0,-1.756 -0.959,-3.514 -2.892,-3.514c-1.933,-0 -2.892,1.758 -2.892,3.514" style="fill:#fff;fill-rule:nonzero;"/><path d="M166.685,3.727l1.006,-0l0,1.422l0.032,-0c0.368,-0.991 1.47,-1.663 2.637,-1.663c2.316,-0 3.019,1.216 3.019,3.18l0,5.306l-1.006,-0l0,-5.147c0,-1.42 -0.464,-2.492 -2.093,-2.492c-1.598,0 -2.557,1.216 -2.589,2.83l0,4.809l-1.006,-0" style="fill:#fff;fill-rule:nonzero;"/><path d="M182.53,11.971l-0.926,0l0,-1.566l-0.032,-0c-0.432,1.07 -1.742,1.806 -2.94,1.806c-2.508,-0 -3.707,-2.029 -3.707,-4.363c0,-2.333 1.199,-4.362 3.707,-4.362c1.23,0 2.429,0.624 2.86,1.805l0.032,0l-0,-4.727l1.006,-0m-3.898,10.8c2.142,-0 2.892,-1.806 2.892,-3.516c-0,-1.708 -0.75,-3.514 -2.892,-3.514c-1.918,-0 -2.7,1.806 -2.7,3.514c-0,1.71 0.782,3.516 2.7,3.516" style="fill:#fff;fill-rule:nonzero;"/><path d="M191.824,7.848c-0,2.366 -1.374,4.363 -3.899,4.363c-2.524,-0 -3.899,-1.997 -3.899,-4.363c-0,-2.365 1.375,-4.362 3.899,-4.362c2.525,-0 3.899,1.997 3.899,4.362m-6.791,0c0,1.758 0.958,3.516 2.892,3.516c1.933,-0 2.892,-1.758 2.892,-3.516c0,-1.756 -0.959,-3.514 -2.892,-3.514c-1.934,-0 -2.892,1.758 -2.892,3.514" style="fill:#fff;fill-rule:nonzero;"/><path d="M193.306,3.727l1.006,-0l-0,1.422l0.032,-0c0.367,-0.991 1.47,-1.663 2.636,-1.663c2.316,-0 3.02,1.216 3.02,3.18l0,5.306l-1.007,-0l0,-5.147c0,-1.42 -0.463,-2.492 -2.093,-2.492c-1.597,0 -2.556,1.216 -2.588,2.83l-0,4.809l-1.006,-0" style="fill:#fff;fill-rule:nonzero;"/></g></svg>